# xmcd
#
# Track frame offsets: 
#        150
#        18286
#        36612
#        61304
#        81656
#        101636
#        127024
#        148049
#        164920
#        184431
#
# Disc length: 2915 seconds
#
# Revision: 1
# Processed by: cddbd v1.5.2PL0 Copyright (c) Steve Scherf et al.
# Submitted via: ExactAudioCopy v1.3
#
DISCID=9d0b610a
DTITLE=Murray Kinsley and Wicked Grin - Murder Creek
DYEAR=2018
DGENRE=Blues
TTITLE0=This Old Dawg (feat. Tom Bona and Sonny Del Rio)
TTITLE1=Fly Fly Fly
TTITLE2=Dance the Blues (feat. Jesse O'Brien and Ted Peacock)
TTITLE3=Trouble Coming (feat. Murray Kinsley)
TTITLE4=Take Me Down (feat. Mary Jane Russell)
TTITLE5=So Long, Too Soon (feat. Jesse O'Brien)
TTITLE6=Murder Creek (feat. Ted Peacock)
TTITLE7=My Own Way (feat. Jesse O'Brien, Darcy Hepner and Ted Peacock)
TTITLE8=Dark Nights (feat. Jesse O'Brien and Mary Jane Russell)
TTITLE9=Freedom (feat. Jesse O'Brien and Mary Jane Russell)
EXTD=
EXTT0=
EXTT1=
EXTT2=
EXTT3=
EXTT4=
EXTT5=
EXTT6=
EXTT7=
EXTT8=
EXTT9=
PLAYORDER=
